<svg xmlns="http://www.w3.org/2000/svg" xmlns:xlink="http://www.w3.org/1999/xlink" width="500" zoomAndPan="magnify" viewBox="0 0 375 374.999991" height="500" preserveAspectRatio="xMidYMid meet" version="1.0"><path fill="#8cb7b1" d="M 357.375 231.71875 C 338.683594 305.898438 270.519531 365.296875 188.894531 370.3125 C 113.550781 375.027344 25.535156 331.046875 13.089844 250.289062 C 0.128906 166.234375 56.554688 79.792969 130.421875 43.058594 C 217.023438 0.0546875 318.261719 41.921875 351.910156 132.8125 C 354.859375 140.679688 357.199219 148.71875 358.925781 156.9375 C 360.652344 165.160156 361.746094 173.460938 362.210938 181.847656 C 362.671875 190.234375 362.5 198.609375 361.6875 206.96875 C 360.878906 215.328125 359.441406 223.578125 357.375 231.71875 Z M 357.375 231.71875 " fill-opacity="1" fill-rule="nonzero"/><path fill="#f9e8d2" d="M 218.898438 140.867188 C 214.699219 125.027344 200.339844 115.785156 185.316406 118.425781 C 169.476562 121.226562 160.238281 134.265625 154.007812 149.023438 C 144.769531 171.039062 174.558594 190.296875 184.527344 169.429688 C 184.40625 177.46875 184.25 185.492188 184.117188 193.519531 C 183.738281 215.792969 183.363281 238.050781 182.996094 260.296875 C 182.585938 285.03125 218.488281 285.03125 218.898438 260.296875 C 219.242188 240.054688 219.578125 219.816406 219.914062 199.578125 C 220.230469 181.046875 223.742188 158.882812 218.898438 140.867188 Z M 218.898438 140.867188 " fill-opacity="1" fill-rule="nonzero"/></svg>