<svg xmlns="http://www.w3.org/2000/svg" xmlns:xlink="http://www.w3.org/1999/xlink" width="500" zoomAndPan="magnify" viewBox="0 0 375 374.999991" height="500" preserveAspectRatio="xMidYMid meet" version="1.0"><path fill="#8cb7b1" d="M 357.375 231.71875 C 338.683594 305.898438 270.519531 365.296875 188.894531 370.3125 C 113.550781 375.027344 25.535156 331.046875 13.089844 250.289062 C 0.128906 166.234375 56.554688 79.792969 130.421875 43.058594 C 217.023438 0.0546875 318.261719 41.921875 351.910156 132.8125 C 354.859375 140.679688 357.199219 148.71875 358.925781 156.9375 C 360.652344 165.160156 361.746094 173.460938 362.210938 181.847656 C 362.671875 190.234375 362.5 198.609375 361.6875 206.96875 C 360.878906 215.328125 359.441406 223.578125 357.375 231.71875 Z M 357.375 231.71875 " fill-opacity="1" fill-rule="nonzero"/><path fill="#fef0d9" d="M 223.515625 235.136719 L 182.914062 236.5625 C 181.765625 236.5625 179.984375 236.484375 178.003906 236.351562 C 190.875 219.5625 207.597656 202.03125 214.25 181.757812 C 229.378906 135.691406 177.171875 102.230469 143.527344 134.371094 C 126.449219 150.699219 151.894531 177.152344 168.910156 160.875 C 174.757812 155.292969 181.609375 159.410156 181 167.34375 C 180.394531 175.277344 171.089844 185.03125 166.480469 191.101562 C 155.921875 205.320312 136.359375 223.375 133.230469 241.789062 C 130.210938 259.542969 142.667969 272.332031 158.761719 274.261719 C 179.65625 276.753906 202.4375 273.324219 223.4375 272.570312 C 246.550781 271.792969 246.65625 234.304688 223.515625 235.136719 Z M 223.515625 235.136719 " fill-opacity="1" fill-rule="nonzero"/></svg>