<svg xmlns="http://www.w3.org/2000/svg" xmlns:xlink="http://www.w3.org/1999/xlink" width="500" zoomAndPan="magnify" viewBox="0 0 375 374.999991" height="500" preserveAspectRatio="xMidYMid meet" version="1.0"><path fill="#8cb7b1" d="M 365.09375 231.71875 C 346.402344 305.898438 278.238281 365.296875 196.613281 370.3125 C 121.269531 375.027344 33.253906 331.046875 20.808594 250.289062 C 7.847656 166.234375 64.273438 79.792969 138.140625 43.058594 C 224.742188 0.0546875 325.980469 41.921875 359.628906 132.8125 C 362.578125 140.679688 364.917969 148.71875 366.644531 156.9375 C 368.371094 165.160156 369.464844 173.460938 369.929688 181.847656 C 370.390625 190.234375 370.21875 198.609375 369.40625 206.96875 C 368.597656 215.328125 367.160156 223.578125 365.09375 231.71875 Z M 365.09375 231.71875 " fill-opacity="1" fill-rule="nonzero"/><path fill="#fef0d9" d="M 239.0625 212.25 C 234.859375 206.097656 229.601562 201.042969 223.289062 197.082031 C 227.015625 193.496094 230.160156 189.457031 232.722656 184.96875 C 235.28125 180.476562 237.160156 175.714844 238.351562 170.683594 C 242.878906 150.660156 232.277344 131.21875 213.957031 122.757812 C 194.988281 114.003906 168.972656 118.269531 153.398438 132.3125 C 136.976562 147.121094 138.574219 169.269531 155.734375 182.207031 C 171.574219 194.085938 186.964844 172.96875 179.492188 157.960938 C 181.019531 157.667969 182.339844 156.980469 183.453125 155.898438 C 187 154.503906 190.679688 153.886719 194.488281 154.050781 C 199.292969 154.75 202.910156 156.308594 203.570312 161.417969 C 205.019531 172.636719 185.644531 181.21875 178.148438 185.414062 C 164.15625 193.214844 168.167969 213.6875 182.4375 218.230469 C 188.402344 220.128906 217.21875 228.351562 211.210938 240.007812 C 209.035156 244.257812 197.378906 242.410156 193.945312 241.578125 C 186.78125 239.835938 181.128906 235.941406 176.035156 230.742188 C 159.824219 214.203125 134.441406 239.597656 150.640625 256.125 C 173.078125 279.078125 223.238281 291.761719 242.496094 257.578125 C 250.363281 243.570312 247.734375 225.304688 239.0625 212.25 Z M 239.0625 212.25 " fill-opacity="1" fill-rule="nonzero"/></svg>