<svg xmlns="http://www.w3.org/2000/svg" xmlns:xlink="http://www.w3.org/1999/xlink" width="500" zoomAndPan="magnify" viewBox="0 0 375 374.999991" height="500" preserveAspectRatio="xMidYMid meet" version="1.0"><path fill="#8cb7b1" d="M 366.378906 237.554688 C 347.21875 313.605469 277.339844 374.5 193.65625 379.640625 C 116.417969 384.472656 26.183594 339.382812 13.421875 256.59375 C 0.136719 170.421875 57.984375 81.800781 133.710938 44.140625 C 222.492188 0.0546875 326.285156 42.976562 360.777344 136.160156 C 363.800781 144.222656 366.199219 152.464844 367.96875 160.890625 C 369.742188 169.320312 370.863281 177.832031 371.339844 186.429688 C 371.8125 195.027344 371.636719 203.609375 370.804688 212.179688 C 369.972656 220.75 368.5 229.207031 366.378906 237.554688 Z M 366.378906 237.554688 " fill-opacity="1" fill-rule="nonzero"/><path fill="#fef0d9" d="M 244.589844 251.074219 C 242.789062 223.9375 240.984375 196.800781 239.179688 169.664062 C 237.621094 146.144531 200.789062 145.96875 202.359375 169.664062 C 202.933594 178.351562 203.511719 187.039062 204.089844 195.726562 C 193.265625 197.472656 178.296875 198.636719 173.792969 188.960938 C 169.285156 179.285156 187.769531 161.898438 193.832031 156.011719 C 210.855469 139.460938 184.808594 113.4375 167.8125 129.976562 C 148.1875 149.125 125.792969 179.707031 142.03125 207.554688 C 155.902344 231.355469 181.871094 234.429688 206.511719 231.914062 C 207.214844 242.601562 207.925781 253.289062 208.636719 263.96875 C 209.992188 283.875 239.394531 289.9375 244.78125 268.867188 L 246 264.105469 C 246.617188 261.921875 246.804688 259.707031 246.5625 257.453125 C 246.316406 255.199219 245.660156 253.070312 244.589844 251.074219 Z M 244.589844 251.074219 " fill-opacity="1" fill-rule="nonzero"/></svg>