<svg xmlns="http://www.w3.org/2000/svg" xmlns:xlink="http://www.w3.org/1999/xlink" width="500" zoomAndPan="magnify" viewBox="0 0 375 374.999991" height="500" preserveAspectRatio="xMidYMid meet" version="1.0"><path fill="#8cb7b1" d="M 361.984375 231.71875 C 343.292969 305.898438 275.128906 365.296875 193.503906 370.3125 C 118.160156 375.027344 30.144531 331.046875 17.699219 250.289062 C 4.738281 166.234375 61.164062 79.792969 135.03125 43.058594 C 221.632812 0.0546875 322.871094 41.921875 356.519531 132.8125 C 359.46875 140.679688 361.808594 148.71875 363.535156 156.9375 C 365.261719 165.160156 366.355469 173.460938 366.820312 181.847656 C 367.28125 190.234375 367.109375 198.609375 366.296875 206.96875 C 365.488281 215.328125 364.050781 223.578125 361.984375 231.71875 Z M 361.984375 231.71875 " fill-opacity="1" fill-rule="nonzero"/><path fill="#fef0d9" d="M 251.804688 217.09375 C 248.769531 194.757812 232.839844 177.113281 211.96875 169.484375 C 197.753906 164.296875 183.15625 164.269531 169.070312 167.527344 L 170.667969 155.109375 L 213.726562 153.894531 C 236.785156 153.234375 236.878906 117.332031 213.726562 117.992188 L 159.117188 119.535156 C 156.867188 119.539062 154.695312 119.96875 152.613281 120.824219 C 150.527344 121.679688 148.683594 122.902344 147.082031 124.484375 C 141.023438 127.347656 137.523438 133.726562 136.613281 140.828125 L 130.675781 186.511719 C 130.578125 187.53125 130.589844 188.554688 130.71875 189.574219 C 130.84375 190.59375 131.078125 191.585938 131.417969 192.554688 C 131.761719 193.523438 132.203125 194.445312 132.746094 195.316406 C 133.285156 196.191406 133.917969 196.996094 134.632812 197.730469 C 138.09375 207.207031 148.980469 214.625 160.636719 208.566406 C 177.242188 199.945312 212.921875 194.640625 216.324219 221.898438 C 219.890625 250.34375 178.546875 242.359375 164.242188 237.195312 C 142.472656 229.277344 133.101562 264.003906 154.695312 271.820312 C 177.335938 280.003906 203.21875 282.894531 224.90625 270.339844 C 243.78125 259.371094 254.75 238.976562 251.804688 217.09375 Z M 251.804688 217.09375 " fill-opacity="1" fill-rule="nonzero"/></svg>