<svg xmlns="http://www.w3.org/2000/svg" xmlns:xlink="http://www.w3.org/1999/xlink" width="500" zoomAndPan="magnify" viewBox="0 0 375 374.999991" height="500" preserveAspectRatio="xMidYMid meet" version="1.0"><defs><clipPath id="28271cb8b8"><path d="M 22 43 L 353 43 L 353 333.609375 L 22 333.609375 Z M 22 43 " clip-rule="nonzero"/></clipPath></defs><g clip-path="url(#28271cb8b8)"><path fill="#8cb7b1" d="M 173.714844 51.863281 C 179.839844 41.25 195.160156 41.25 201.285156 51.863281 L 350.1875 309.765625 C 356.3125 320.375 348.652344 333.644531 336.398438 333.644531 L 38.601562 333.644531 C 26.34375 333.644531 18.6875 320.375 24.8125 309.765625 Z M 187.5 236.007812 C 178.707031 236.082031 171.578125 229.015625 171.574219 220.222656 L 171.554688 162.28125 C 171.554688 153.492188 178.679688 146.300781 187.472656 146.226562 C 196.261719 146.152344 203.390625 153.21875 203.394531 162.011719 L 203.414062 219.953125 C 203.417969 228.746094 196.292969 235.933594 187.5 236.007812 Z M 171.558594 266.515625 C 171.535156 275.308594 178.644531 282.554688 187.433594 282.699219 C 196.226562 282.84375 203.371094 275.835938 203.394531 267.042969 L 203.414062 259.117188 C 203.4375 250.328125 196.328125 243.082031 187.535156 242.933594 C 178.746094 242.789062 171.601562 249.796875 171.578125 258.589844 Z M 171.558594 266.515625 " fill-opacity="1" fill-rule="evenodd"/></g></svg>